<svg xmlns="http://www.w3.org/2000/svg" width="125" height="40"><path d="M29.583 19.641c0-4.023 3.382-7.299 7.405-7.299 2.225 0 3.81.873 5.002 2.012l-1.407 1.406c-.854-.801-2.011-1.424-3.596-1.424-2.938 0-5.234 2.367-5.234 5.305s2.296 5.305 5.234 5.305c1.905 0 2.991-.766 3.685-1.459.57-.57.944-1.39 1.086-2.511h-4.771v-1.994H43.7c.071.356.107.784.107 1.247 0 1.495-.409 3.346-1.727 4.664-1.282 1.335-2.919 2.047-5.091 2.047-4.024-.001-7.406-3.276-7.406-7.299M49.23 17.54c-2.599 0-4.718 1.976-4.718 4.699 0 2.706 2.119 4.7 4.718 4.7 2.599 0 4.718-1.994 4.718-4.7 0-2.723-2.119-4.699-4.718-4.699m0 7.548c-1.424 0-2.652-1.176-2.652-2.849 0-1.69 1.228-2.848 2.652-2.848 1.424 0 2.652 1.158 2.652 2.848.001 1.673-1.228 2.849-2.652 2.849m10.291-7.548c-2.599 0-4.718 1.976-4.718 4.699 0 2.706 2.119 4.7 4.718 4.7 2.599 0 4.717-1.994 4.717-4.7 0-2.723-2.117-4.699-4.717-4.699m0 7.548c-1.424 0-2.652-1.176-2.652-2.849 0-1.69 1.228-2.848 2.652-2.848 1.424 0 2.652 1.158 2.652 2.848 0 1.673-1.228 2.849-2.652 2.849m12.631-7.263v.766h-.07c-.462-.552-1.352-1.05-2.475-1.05-2.351 0-4.504 2.065-4.504 4.717 0 2.636 2.153 4.683 4.504 4.683 1.123 0 2.013-.499 2.475-1.068h.07v.677c0 1.798-.961 2.759-2.51 2.759-1.263 0-2.047-.908-2.367-1.674l-1.798.748c.517 1.247 1.888 2.777 4.165 2.777 2.421 0 4.469-1.425 4.469-4.896v-8.438h-1.959zm-2.366 7.263c-1.425 0-2.616-1.193-2.616-2.831 0-1.655 1.191-2.866 2.616-2.866 1.405 0 2.51 1.21 2.51 2.866 0 1.638-1.105 2.831-2.51 2.831m5.75-12.248h2.063v13.814h-2.063zm7.725 12.248c-1.051 0-1.797-.48-2.277-1.424l6.282-2.6-.212-.533c-.393-1.051-1.585-2.991-4.024-2.991-2.421 0-4.432 1.905-4.432 4.699 0 2.635 1.992 4.7 4.663 4.7 2.154 0 3.4-1.317 3.918-2.083l-1.604-1.067c-.534.783-1.264 1.299-2.314 1.299m-.16-5.732c.819 0 1.514.41 1.745.997l-4.201 1.744c-.055-1.816 1.405-2.741 2.456-2.741m13.235-6.516h-4.941v13.814h2.061v-5.233h2.881c2.285 0 4.531-1.654 4.531-4.29s-2.247-4.291-4.532-4.291m.052 6.658h-2.933v-4.735h2.933c1.543 0 2.417 1.276 2.417 2.368 0 1.071-.874 2.367-2.417 2.367m5.617-6.658h2.062v13.814h-2.062zm11.32 13.792v-5.296c0-2.453-1.83-3.821-4.194-3.821-1.494 0-3.039.657-3.68 2.115l1.83.764c.392-.764 1.121-1.013 1.885-1.013 1.066 0 2.15.64 2.169 1.777v.143c-.374-.215-1.173-.534-2.15-.534-1.974 0-3.98 1.084-3.98 3.11 0 1.848 1.616 3.039 3.43 3.039 1.385 0 2.15-.622 2.631-1.352h.07v1.067h1.989zm-4.442-1.546c-.676 0-1.618-.338-1.618-1.174 0-1.066 1.173-1.476 2.187-1.476.906 0 1.333.196 1.884.463a2.503 2.503 0 0 1-2.453 2.187m11.692-7.269l-2.362 5.989h-.071l-2.454-5.989h-2.221l3.679 8.37-2.096 4.657h2.15l5.667-13.027z" opacity=".54"/><linearGradient id="a" gradientUnits="userSpaceOnUse" x1="19.77" y1="22.911" x2="15.605" y2="16.432"><stop offset=".243" stop-color="#ffce86"/><stop offset=".431" stop-color="#ffb886"/><stop offset=".638" stop-color="#ffa687"/><stop offset=".788" stop-color="#ffa087"/></linearGradient><path fill="url(#a)" d="M21.981 18.918c-.358-.194-4.353-2.367-5.25-2.858l-3.925 3.922 3.915 3.912 5.125-2.79c.497-.268.962-.58.962-1.153v-.02c0-.421-.466-.816-.827-1.013z"/><linearGradient id="b" gradientUnits="userSpaceOnUse" x1="8.687" y1="20.443" x2="8.687" y2="6.717"><stop offset=".243" stop-color="#dcffaf"/><stop offset=".251" stop-color="#dafeaf"/><stop offset=".48" stop-color="#b2ecb7"/><stop offset=".689" stop-color="#95debd"/><stop offset=".869" stop-color="#83d6c1"/><stop offset="1" stop-color="#7dd3c2"/></linearGradient><path fill="url(#b)" d="M16.731 16.06A16524.882 16524.882 0 0 0 2.213 8.159c-.407-.221-.983-.589-1.571-.331l12.164 12.154 3.925-3.922z"/><linearGradient id="c" gradientUnits="userSpaceOnUse" x1="6.403" y1="32.651" x2="6.403" y2="8.399"><stop offset=".305" stop-color="#77ffd7"/><stop offset=".326" stop-color="#75fad6"/><stop offset=".532" stop-color="#67d2ce"/><stop offset=".72" stop-color="#5db5c9"/><stop offset=".882" stop-color="#57a3c5"/><stop offset="1" stop-color="#559dc4"/></linearGradient><path fill="url(#c)" d="M.642 7.828a.946.946 0 0 0-.091.044C.267 8.027 0 8.402 0 9.106v21.72c0 .708.274 1.135.613 1.287l.039.015 12.155-12.146L.642 7.828z"/><linearGradient id="d" gradientUnits="userSpaceOnUse" x1="2.054" y1="32.34" x2="14.489" y2="22.162"><stop offset=".092" stop-color="#a950c6"/><stop offset=".235" stop-color="#ad51c0"/><stop offset=".433" stop-color="#b753ae"/><stop offset=".662" stop-color="#c95691"/><stop offset=".914" stop-color="#e15a69"/><stop offset="1" stop-color="#ea5c59"/></linearGradient><path fill="url(#d)" d="M.651 32.128c.331.135.721.125 1.252-.163l14.817-8.071-3.915-3.912L.651 32.128z"/></svg>