<svg xmlns="http://www.w3.org/2000/svg" viewBox="0 0 125 40"><path fill="#FFF" d="M27.336 28.285a1.167 1.167 0 0 0-.387-1.605c-4.938-3.018-11.06-3.72-18.197-2.088a1.168 1.168 0 1 0 .52 2.276c6.521-1.489 12.06-.882 16.459 1.807.55.336 1.269.163 1.605-.39zm4.891-11.025a1.754 1.754 0 0 0-.612-2.401c-6.952-4.127-17.955-4.516-24.572-2.506a1.753 1.753 0 0 0 1.017 3.354c5.767-1.75 15.727-1.42 21.767 2.166a1.75 1.75 0 0 0 2.4-.613zm-3.071 3.918c-5.784-3.554-14.246-4.554-21.049-2.489a1.465 1.465 0 0 0-.977 1.822 1.463 1.463 0 0 0 1.822.973c5.956-1.808 13.642-.911 18.676 2.183.687.422 1.435.207 2.016-.481v.001c.581-.688.199-1.587-.488-2.009z"/><path fill="#24CF5F" d="M18.604 1.266C8.145 1.265-.061 9.653-.061 19.999c0 10.348 8.423 18.736 18.77 18.736 10.348 0 18.682-8.387 18.682-18.736 0-10.345-8.328-18.733-18.787-18.733zM9.272 26.868a1.167 1.167 0 1 1-.52-2.276c7.137-1.632 13.258-.93 18.197 2.088.55.338.726 1.056.387 1.606l.001-.001a1.167 1.167 0 0 1-1.605.389c-4.4-2.689-9.939-3.295-16.46-1.806zm20.372-3.682c-.581.687-1.33.902-2.017.48-5.034-3.094-12.716-3.991-18.672-2.183a1.465 1.465 0 0 1-1.825-.973 1.463 1.463 0 0 1 .974-1.822c6.804-2.064 15.269-1.065 21.053 2.489.686.423 1.068 1.322.487 2.009zm.183-5.313c-6.039-3.586-16-3.916-21.767-2.166a1.753 1.753 0 0 1-1.017-3.354c6.617-2.01 17.62-1.621 24.572 2.506a1.753 1.753 0 0 1-1.788 3.014zm21.274.688c-3.233-.772-3.81-1.313-3.81-2.451 0-1.075 1.013-1.798 2.518-1.798 1.458 0 2.904.55 4.421 1.68a.213.213 0 0 0 .3-.048l1.579-2.226a.212.212 0 0 0-.04-.288c-1.805-1.448-3.837-2.153-6.212-2.153-3.493 0-5.933 2.097-5.933 5.095 0 3.216 2.105 4.355 5.742 5.234 3.096.713 3.617 1.311 3.617 2.378 0 1.183-1.057 1.919-2.756 1.919-1.889 0-3.428-.636-5.15-2.128a.21.21 0 0 0-.301.024l-1.77 2.108a.211.211 0 0 0 .02.293c2.005 1.79 4.47 2.735 7.13 2.735 3.764 0 6.196-2.057 6.196-5.239.006-2.687-1.602-4.175-5.541-5.133l-.01-.002zm14.064-3.191c-1.632 0-2.97.642-4.072 1.96v-1.482a.213.213 0 0 0-.213-.212h-2.896a.211.211 0 0 0-.211.212v16.466c0 .117.094.212.211.212h2.896a.214.214 0 0 0 .213-.212v-5.197c1.103 1.238 2.442 1.843 4.072 1.843 3.031 0 6.1-2.334 6.1-6.794.005-4.461-3.065-6.796-6.097-6.796h-.003zm2.731 6.796c0 2.271-1.4 3.857-3.404 3.857-1.98 0-3.473-1.658-3.473-3.857 0-2.199 1.493-3.856 3.473-3.856 1.973-.001 3.404 1.621 3.404 3.856zm11.233-6.796c-3.904 0-6.962 3.006-6.962 6.844 0 3.796 3.037 6.771 6.915 6.771 3.917 0 6.985-2.996 6.985-6.819 0-3.811-3.047-6.795-6.937-6.795v-.001zm0 10.674c-2.076 0-3.642-1.668-3.642-3.88 0-2.222 1.512-3.833 3.594-3.833 2.09 0 3.666 1.668 3.666 3.882 0 2.221-1.521 3.831-3.618 3.831zm15.274-10.409h-3.188v-3.259a.212.212 0 0 0-.211-.212h-2.896a.212.212 0 0 0-.213.212v3.259h-1.392a.211.211 0 0 0-.211.212v2.489c0 .117.094.212.211.212h1.392v6.442c0 2.603 1.296 3.922 3.851 3.922 1.039 0 1.9-.215 2.713-.675a.211.211 0 0 0 .107-.184v-2.37a.212.212 0 0 0-.307-.191 3.643 3.643 0 0 1-1.7.41c-.93 0-1.344-.422-1.344-1.367V18.55h3.188a.212.212 0 0 0 .211-.212v-2.489a.205.205 0 0 0-.208-.213l-.003-.001zm11.104.013v-.4c0-1.177.452-1.702 1.465-1.702.604 0 1.089.12 1.632.3a.211.211 0 0 0 .278-.201v-2.44a.214.214 0 0 0-.15-.204 7.966 7.966 0 0 0-2.407-.346c-2.675 0-4.089 1.506-4.089 4.355v.613h-1.392a.214.214 0 0 0-.212.213v2.502c0 .117.096.212.212.212h1.392v9.936c0 .117.094.212.211.212h2.896a.213.213 0 0 0 .213-.212V18.55h2.704l4.143 9.933c-.471 1.044-.932 1.251-1.563 1.251-.511 0-1.049-.152-1.598-.452a.213.213 0 0 0-.169-.016.207.207 0 0 0-.125.114l-.982 2.153a.21.21 0 0 0 .091.274c1.024.555 1.95.792 3.094.792 2.138 0 3.319-.996 4.362-3.676l5.025-12.984a.213.213 0 0 0-.196-.289h-3.017c-.09 0-.17.057-.2.142l-3.089 8.822-3.383-8.829a.213.213 0 0 0-.198-.136h-4.949v-.001zm-6.437-.013h-2.896a.213.213 0 0 0-.213.212v12.637c0 .117.096.212.213.212h2.896a.213.213 0 0 0 .212-.212V15.849a.214.214 0 0 0-.212-.214zm-1.433-5.754a2.077 2.077 0 1 0 0 4.155 2.077 2.077 0 0 0 0-4.155zm25.375 9.817a2.03 2.03 0 0 1-2.038-2.039 2.05 2.05 0 0 1 2.049-2.049 2.03 2.03 0 0 1 2.038 2.038 2.05 2.05 0 0 1-2.049 2.05zm.011-3.885c-1.045 0-1.834.83-1.834 1.846s.783 1.835 1.823 1.835a1.823 1.823 0 0 0 1.835-1.846 1.808 1.808 0 0 0-1.824-1.835zm.452 2.045l.576.807h-.486l-.52-.74h-.446v.74h-.406v-2.139h.953c.497 0 .825.254.825.682.001.351-.202.565-.495.65h-.001zm-.344-.965h-.532v.677h.532c.265 0 .422-.13.422-.339-.001-.221-.159-.338-.422-.338z"/></svg>